<?xml version="1.0" encoding="UTF-8" standalone="no"?>
<!-- Created with Inkscape (http://www.inkscape.org/) -->

<svg
   version="1.1"
   id="svg1"
   width="153.63797"
   height="159.99994"
   viewBox="0 0 153.63797 159.99994"
   sodipodi:docname="logo-comunita.svg"
   inkscape:version="1.4.4 (dcaf3e7d9e, 2026-05-05)"
   xmlns:inkscape="http://www.inkscape.org/namespaces/inkscape"
   xmlns:sodipodi="http://sodipodi.sourceforge.net/DTD/sodipodi-0.dtd"
   xmlns="http://www.w3.org/2000/svg"
   xmlns:svg="http://www.w3.org/2000/svg">
  <defs
     id="defs1" />
  <sodipodi:namedview
     id="namedview1"
     pagecolor="#ffffff"
     bordercolor="#000000"
     borderopacity="0.25"
     inkscape:showpageshadow="2"
     inkscape:pageopacity="0.0"
     inkscape:pagecheckerboard="0"
     inkscape:deskcolor="#d1d1d1"
     inkscape:zoom="9.0500035"
     inkscape:cx="76.79555"
     inkscape:cy="79.999969"
     inkscape:window-width="3072"
     inkscape:window-height="1659"
     inkscape:window-x="0"
     inkscape:window-y="0"
     inkscape:window-maximized="1"
     inkscape:current-layer="g1">
    <inkscape:page
       x="0"
       y="0"
       width="153.63797"
       height="159.99994"
       id="page2"
       margin="0"
       bleed="0" />
  </sodipodi:namedview>
  <g
     inkscape:groupmode="layer"
     inkscape:label="Image"
     id="g1">
    <path
       style="fill:#f3d98b;fill-opacity:1"
       d="m 63.333333,158.67295 -8,-0.96218 -6,-1.63195 -6,-1.63196 -8.23666,-4.56795 -8.23666,-4.56796 L 20.212852,137.853 13.565691,130.39505 9.5389002,122.19753 5.5121095,114 2.7560547,104.0268 0,94.053599 V 81.913674 69.773749 L 2.7972049,61.220208 5.5944099,52.666667 8.7736235,46 l 3.1792135,-6.666667 6.069078,-7.587848 6.069078,-7.587848 8.287837,-6.272116 8.287837,-6.272115 8,-3.7553014 8,-3.7553011 L 64.613465,2.0514017 72.560263,0 h 12.21284 12.212839 l 8.352068,2.6681604 8.35207,2.6681603 4.36705,2.6989858 4.36705,2.6989855 7.78791,8.335172 7.78791,8.335171 4.25881,8.011166 4.25881,8.011165 2.64734,9.953184 2.64733,9.953183 0.91284,6 0.91284,6 -0.80156,-0.760356 -0.80157,-0.760357 -3.2109,-12.657756 -3.2109,-12.657756 L 140.28599,37.915221 134.95894,27.333333 127.8128,20.285727 120.66667,13.23812 112.9593,9.3718081 105.25193,5.5054959 97.625967,3.9168562 90,2.3282165 79.067871,3.0944141 68.135743,3.8606117 58.415535,7.2409662 48.695328,10.621321 38.01433,17.967233 27.333333,25.313145 21.49623,32.885879 15.659126,40.458613 11.247966,49.229307 6.8368057,58 4.7517362,66.192459 2.6666667,74.384919 v 5.895994 5.895995 L 4.0952662,94.088454 5.5238657,102 l 3.1934871,8.95588 3.1934872,8.95587 3.53567,5.71079 3.535671,5.71079 4.175576,4.49995 4.175576,4.49995 6.817908,4.42454 6.817907,4.42454 8.515426,2.93413 8.515426,2.93413 14.666667,-0.0621 14.666666,-0.0621 3.447927,-0.55292 3.447926,-0.55292 7.885404,-3.17178 7.88541,-3.17177 6.31966,-4.4052 6.31966,-4.40519 1.01367,-0.0896 1.01368,-0.0896 7.15219,-8.66472 7.1522,-8.66471 3.36593,-6.24568 3.36593,-6.24567 2.47169,-8 2.47168,-8.000003 0.0102,-4.921311 0.0102,-4.921311 1.04762,-0.647464 1.04761,-0.647464 0.15387,2.902108 0.15387,2.902108 -1.7711,9.333334 -1.77109,9.333333 -2.83127,6.60144 -2.83126,6.60143 -4.54443,6.32552 -4.54442,6.32551 -3.0547,3.5518 -3.0547,3.55181 -8,5.67493 -8,5.67494 -8.66667,3.38831 -8.666667,3.38831 -9.588737,1.458 -9.588737,1.458 -2.411263,-0.18243 -2.411263,-0.18243 z m -4.666666,-15.78287 -7.333334,-2.44199 -5.974024,-3.07461 -5.974023,-3.07461 -8.355955,-8.35596 -8.355955,-8.35595 -3.904791,-8.25668 -3.904791,-8.25668 -1.594455,-9.453 -1.594455,-9.453001 0.687449,-7.417133 0.687448,-7.417133 3.3762,-9.616006 3.3762,-9.616006 4.063642,-5.906301 4.063642,-5.906301 6.368601,-5.61811 6.368601,-5.618109 7.403039,-3.745698 7.403039,-3.745699 7.860672,-2.285159 7.860672,-2.285159 9.35732,0.784484 9.357321,0.784484 8.672967,4.38679 8.672963,4.38679 7.41796,7.333334 7.41795,7.333333 5.16085,7.869841 5.16084,7.86984 3.1272,9.84762 3.12721,9.84762 -0.10841,2.949206 -0.10841,2.949206 -3.02226,-9.509476 -3.02227,-9.509477 -5.10034,-9.15719 L 122.20464,42 l -7.68723,-7.553425 -7.68723,-7.553425 -9.871002,-4.878516 -9.871006,-4.878516 -5.210753,-0.698088 -5.210752,-0.698088 -8,1.455033 -8,1.455032 -9.753364,4.790679 -9.753363,4.790678 -7.237425,7.237425 -7.237425,7.237425 -3.825474,7.646893 L 19.034142,58 l -1.690032,7.166629 -1.690032,7.166628 0.639347,12.223098 0.639347,12.223097 4.414667,9.250108 4.414667,9.2501 6.633865,7.01433 6.633865,7.01434 6.151749,3.44135 6.151748,3.44135 7.937429,2.67653 7.937428,2.67654 10.972077,0.0318 10.972076,0.0318 7.051733,-2.34221 7.051734,-2.34221 6.87409,-4.3973 6.87408,-4.3973 5.682,-7.06437 5.68199,-7.06437 3.4002,-7.33333 3.40021,-7.333337 0.58296,-7.024613 0.58296,-7.024614 1.09179,-0.674767 1.0918,-0.674767 -0.58962,7.014003 -0.58963,7.014003 -2.20042,6.685382 -2.20043,6.68537 -4.25969,6.66667 -4.25969,6.66667 -5.99421,5.49594 -5.9942,5.49595 -9.215,4.451 -9.215,4.451 -14,0.38575 -14,0.38576 z m 12.149767,-8.91482 -7.183565,-2.01456 -7.886609,-4.20352 -7.886609,-4.20352 -6.814947,-7.4435 -6.814947,-7.44349 -3.184287,-6.93811 -3.184286,-6.938112 -1.488147,-8.002103 -1.488147,-8.002102 1.686812,-9.438824 1.686811,-9.438824 3.947594,-7.899833 3.947593,-7.899833 6.666867,-5.994087 6.666867,-5.994087 7.589616,-3.721456 7.589617,-3.721456 H 77.333333 90 l 7.465119,3.662559 7.465121,3.66256 7.37995,7.737112 7.37996,7.737113 3.42791,6.764664 3.42792,6.764665 1.56482,6.214484 1.56483,6.214483 -0.70197,0.701969 -0.70197,0.701968 -2.29677,-7.086376 -2.29678,-7.086377 -4.11608,-7.333334 L 115.44599,46 110.72299,41.527802 106,37.055603 100.3337,33.734655 94.667403,30.413707 87.124151,28.44389 79.580899,26.474073 72.79045,27.354916 66,28.235758 l -6.666667,3.034711 -6.666666,3.034711 -5.246062,4.230589 -5.246062,4.230589 -4.215212,6.283488 -4.215213,6.283487 -2.361446,7.147219 -2.361446,7.147219 0.586509,11.519448 0.586509,11.519448 3.681724,7.17705 3.681724,7.177053 6.159433,6.58493 6.159434,6.58493 7.395054,4.33134 7.395054,4.33133 6.257093,1.57335 L 77.180853,132 h 8.142454 8.142453 l 4.26712,-2.18269 4.26712,-2.18268 5.00653,-3.93452 5.00652,-3.93452 4.53242,-6.8828 4.53242,-6.88279 2.20437,-5.33333 2.20437,-5.333337 0.78913,-8.400885 0.78914,-8.400886 1.40492,1.404926 1.40493,1.404925 -1.64661,9.662627 -1.64661,9.66263 -3.85662,8.26761 -3.85663,8.26762 -5.80225,5.80224 -5.80224,5.80225 -6.12254,2.96387 -6.122535,2.96387 -8.509357,0.62784 L 78,135.98982 Z m -5.759991,-10.5577 -6.27689,-1.64333 -5.615538,-3.88711 L 47.548476,114 43.114692,108 38.680908,102 36.673787,95.424665 34.666667,88.84933 V 80.602469 72.355607 L 37.582702,65.177804 40.498738,58 l 3.756677,-5.582355 3.756678,-5.582355 5.919958,-4.850961 5.919958,-4.85096 6.754964,-2.566685 L 73.361937,32 h 7.772735 7.772735 l 8.269774,4.132455 8.269779,4.132455 5.23035,6.927558 5.23036,6.927558 2.10453,5.03686 2.10454,5.036859 1.10282,5.903128 L 122.32239,76 h -0.9426 -0.94259 l -2.1836,-7.666667 -2.1836,-7.666666 -4.01916,-6.925052 -4.01917,-6.925052 -6.06443,-4.172437 -6.064431,-4.172437 -6.082914,-2.072657 -6.082914,-2.072657 -6.68864,0.79217 -6.688639,0.792171 -5.651942,2.736058 -5.651942,2.736058 -6.412491,6.308584 L 46.230835,54 l -4.073914,8.666667 -4.073915,8.666666 -0.03654,10 -0.03654,10 3.757318,7.333334 3.757317,7.333333 3.571055,3.791 3.571056,3.79099 6.666666,3.51704 6.666667,3.51705 10,-0.0233 10,-0.0234 7.255812,-3.95136 7.255803,-3.95136 6.52702,-6.66667 6.527,-6.666667 2.54007,-5.752819 2.54005,-5.752819 0.61849,-3.410774 0.61849,-3.410774 0.7253,-0.725295 0.72529,-0.725296 v 3.505538 3.505539 l -2.7608,7.378896 -2.76079,7.378891 -6.69943,7.33024 -6.69942,7.33024 -8.538292,4.07495 -8.538296,4.07495 -7.001482,0.46305 -7.001482,0.46304 z m -2.038737,-10.12993 -5.648961,-2.88212 -4.773673,-6.50304 -4.773673,-6.503045 -2.577366,-7.333069 -2.577366,-7.333069 v -5.124642 -5.124642 l 1.961702,-6.575335 1.961701,-6.575335 4.085762,-4.939816 4.085762,-4.939817 8.603924,-4.235698 8.603924,-4.235698 7.156062,0.0643 7.156062,0.0643 5.763758,1.726864 5.763759,1.726864 4.602367,4.602372 4.60238,4.602372 3.0682,6.781976 3.0682,6.781975 0.77947,5.333334 L 114.70917,78 113.38211,75.333333 112.05506,72.666667 109.30314,65.10178 106.55123,57.536893 102.27562,53.320457 98,49.104021 94.060249,47.04322 90.120498,44.982418 81.986223,44.329477 73.851947,43.676535 66.195486,47.298622 58.539024,50.920708 55.179196,54.460354 51.819369,58 l -2.781724,5.333333 -2.781725,5.333334 0.0654,7.636121 0.06541,7.636121 3.942151,8.363879 3.942152,8.363882 3.864484,3.85333 3.864484,3.85333 4.556435,1.92445 4.556435,1.92444 h 5.922999 5.922999 l 8.363054,-4.11712 8.363055,-4.11711 5.610292,-7.271992 5.6103,-7.271988 0.73688,-5.493816 0.73687,-5.493815 1.05623,1.709017 1.05623,1.709017 -0.7407,4.062793 -0.7407,4.062794 -3.12089,5.483797 -3.1209,5.483793 -4.7547,4.17469 -4.754699,4.17468 -5.629595,2.87463 L 86,115.06623 l -8.666667,0.55175 -8.666666,0.55176 z m 4.176248,-5.39575 -4.139379,-1.20094 -3.65109,-3.65109 -3.65109,-3.651091 -1.976847,-3.822801 -1.976847,-3.822802 -1.069093,-6.763037 -1.069092,-6.763037 2.016882,-7.089834 2.016883,-7.089835 4.674991,-4.813685 4.674991,-4.813684 5.542378,-2.375741 5.542377,-2.37574 5.451994,-0.921109 5.451993,-0.921108 5.30501,1.428491 5.305009,1.42849 3.707714,3.663337 L 103.05845,58 l 2.31826,5.333333 2.31826,5.333334 L 108.61791,74 109.54084,79.333333 108.29648,78 107.05212,76.666667 104.74379,69.333333 102.43546,62 99.551061,58.873315 96.666667,55.746629 93.066213,53.873315 89.46576,52 h -6.471088 -6.471087 l -7.05057,3.513447 -7.050569,3.513447 -3.812696,5.263274 -3.812696,5.263274 -0.912944,6.087943 -0.912943,6.087943 2.215089,7.02707 2.215089,7.027071 4.604153,4.0425 4.604153,4.042501 4.623617,0.86739 4.623617,0.8674 1.738224,-0.69637 1.738224,-0.69636 -3.798494,-0.10527 L 71.736344,104 l -4.201505,-2.00609 -4.201506,-2.006089 -2.929577,-4.327244 -2.929577,-4.327244 -1.430182,-6.42605 -1.430182,-6.426051 1.475354,-5.573949 1.475355,-5.57395 3.551071,-3.834798 3.551072,-3.834798 L 70,57.194485 l 5.333333,-2.469253 6.953605,-0.02928 6.953605,-0.02928 4.586565,4.027057 4.586565,4.027057 1.432785,6.306276 1.432782,6.306276 L 100.82949,80 l -0.44974,4.666667 -0.18988,2.996159 -0.18987,2.996158 -5,5.612458 -5,5.612458 4,-2.811594 4,-2.811593 2.88277,-3.130357 L 103.76555,90 l 2.00846,-4.666667 2.00846,-4.666666 0.10876,2.376158 0.10877,2.376158 -1.80952,4.330803 -1.80953,4.330802 -4.35287,4.35287 -4.352869,4.352872 -6.459947,3.2735 -6.459947,3.2735 -5.710992,-0.12025 -5.710992,-0.12025 z m 21.442278,-5.3558 1.302898,-1.27521 -4.636232,1.56751 -4.636231,1.5675 -0.666667,0.6563 -0.666667,0.65629 4,-0.94859 4,-0.94858 z M 77.411919,89.924316 76.666667,80.515299 72.742543,80.732163 68.818419,80.949028 66.40921,80.319006 64,79.688983 v -1.177825 -1.177825 h 6.666667 6.666666 v -9.477877 -9.477877 l -3.58534,0.899863 -3.58534,0.899863 -3.583611,2.551756 -3.583611,2.551756 -2.164382,4.561097 -2.164382,4.561097 v 4.771513 4.771512 l 2.113055,5.281046 2.113056,5.281045 3.438373,2.252909 3.438373,2.252908 3.448571,0.981854 3.448572,0.981852 0.745252,-0.82216 0.745253,-0.822157 z m 14.426586,5.643511 3.171838,-2.90116 1.828162,-4.290509 1.828162,-4.290508 V 82.042825 80 h -8.587978 -8.587977 l -0.470393,1 -0.470394,1 0.510552,9.114715 0.510552,9.114715 3.547819,-0.880221 3.547819,-0.880221 z m 6.07934,-24.729152 -1.805429,-5.998986 -3.127876,-3.127876 -3.127876,-3.127876 -5.136651,-0.833564 -5.136651,-0.833564 0.874986,4.374929 0.874985,4.374929 v 5.590191 5.590192 l 9.194971,-0.0047 9.194971,-0.0047 z M 137.33333,82 V 81.333333 H 138 138.66667 V 82 82.666667 H 138 137.33333 Z M 152,78 v -0.666667 h 0.66667 0.66666 V 78 78.666667 H 152.66667 152 Z"
       id="path1"
       sodipodi:nodetypes="cccccccccccccccccccccccccccccccccccccccccccccccccccccccccccccccccccccccccccccccccccccccccccccccccccccccccccccccccccccccccccccccccccccccccccccccccccccccccccccccccccccccccccccccccccccccccccccccccccccccccccccccccccccccccccccccccccccccccccccccccccccccccccccccccccccccccccccccccccccccccccccccccccccccccccccccccccccccccccccccccccccccccccccccccccccccccccccccccccccccccccccccccccccccccccccccccccccccccccccccccccccccccccccccccccccccccccccccccccccccccccccccccccccccccccccccccccccccccccccccccccccccccccccccccccccccccccccccccccccccccccccccccccccccccccccccccccccccccccccccccccccccccccccccccccccccccccccccccccccccccccccccccccccc" />
  </g>
</svg>
